<svg width="92" height="92" viewBox="0 0 92 92" fill="none" xmlns="http://www.w3.org/2000/svg">
<circle cx="46" cy="46" r="46" fill="#0D001D"/>
<path d="M19.768 62.384C18.776 62.384 18.008 62.112 17.464 61.568C16.952 60.992 16.696 60.208 16.696 59.216V30.944C16.696 29.92 16.952 29.136 17.464 28.592C18.008 28.048 18.776 27.776 19.768 27.776C20.76 27.776 21.512 28.048 22.024 28.592C22.568 29.136 22.84 29.92 22.84 30.944V42.272H40.264V30.944C40.264 29.92 40.52 29.136 41.032 28.592C41.576 28.048 42.344 27.776 43.336 27.776C44.328 27.776 45.08 28.048 45.592 28.592C46.136 29.136 46.408 29.92 46.408 30.944V59.216C46.408 60.208 46.136 60.992 45.592 61.568C45.08 62.112 44.328 62.384 43.336 62.384C42.344 62.384 41.576 62.112 41.032 61.568C40.52 60.992 40.264 60.208 40.264 59.216V47.408H22.84V59.216C22.84 60.208 22.584 60.992 22.072 61.568C21.56 62.112 20.792 62.384 19.768 62.384ZM57.613 62C56.781 62 56.125 61.776 55.645 61.328C55.197 60.848 54.973 60.208 54.973 59.408C54.973 58.576 55.197 57.952 55.645 57.536C56.125 57.12 56.781 56.912 57.613 56.912H62.989V33.344H65.965L58.909 37.616C58.301 37.968 57.725 38.112 57.181 38.048C56.669 37.952 56.221 37.728 55.837 37.376C55.485 36.992 55.245 36.544 55.117 36.032C54.989 35.52 55.021 35.008 55.213 34.496C55.437 33.952 55.853 33.504 56.461 33.152L63.085 29.168C63.725 28.784 64.365 28.464 65.005 28.208C65.645 27.92 66.237 27.776 66.781 27.776C67.453 27.776 68.013 27.968 68.461 28.352C68.909 28.704 69.133 29.296 69.133 30.128V56.912H74.029C74.861 56.912 75.501 57.12 75.949 57.536C76.429 57.952 76.669 58.576 76.669 59.408C76.669 60.24 76.429 60.88 75.949 61.328C75.501 61.776 74.861 62 74.029 62H57.613Z" fill="#EDF0FF"/>
</svg>
